Coordinates
version=1
nRows=8
nColumns=63
inDegrees=yes

Units are S.I. units (second, meters, Newtons, ...)
If the header above contains a line with 'inDegrees', this indicates whether rotational values are in degrees (yes) or radians (no).

endheader
time	pelvis_tilt	pelvis_list	pelvis_rotation	pelvis_tx	pelvis_ty	pelvis_tz	hip_flexion_r	hip_adduction_r	hip_rotation_r	knee_angle_r	knee_angle_r_beta	ankle_angle_r	subtalar_angle_r	mtp_angle_r	hip_flexion_l	hip_adduction_l	hip_rotation_l	knee_angle_l	knee_angle_l_beta	ankle_angle_l	subtalar_angle_l	mtp_angle_l	L5_S1_Flex_Ext	L5_S1_Lat_Bending	L5_S1_axial_rotation	L4_L5_Flex_Ext	L4_L5_Lat_Bending	L4_L5_axial_rotation	L3_L4_Flex_Ext	L3_L4_Lat_Bending	L3_L4_axial_rotation	L2_L3_Flex_Ext	L2_L3_Lat_Bending	L2_L3_axial_rotation	L1_L2_Flex_Ext	L1_L2_Lat_Bending	L1_L2_axial_rotation	L1_T12_Flex_Ext	L1_T12_Lat_Bending	L1_T12_axial_rotation	Abs_r3	Abs_r2	Abs_r1	Abs_t1	Abs_t2	neck_flexion	neck_bending	neck_rotation	arm_flex_r	arm_add_r	arm_rot_r	elbow_flex_r	pro_sup_r	wrist_flex_r	wrist_dev_r	arm_flex_l	arm_add_l	arm_rot_l	elbow_flex_l	pro_sup_l	wrist_flex_l	wrist_dev_l
      0.00000000	     -0.82516410	     -2.96336947	     96.16924501	      0.19876754	      0.77008854	      0.78347154	      2.59957352	      0.29263104	    -11.67016410	      5.75148515	      0.10038235	     27.41572194	     10.62731211	      0.00000000	      2.89173590	      1.91902982	     13.70477996	      1.12764417	      0.01968110	     25.79823273	     -8.78281263	      0.00000000	      0.30488507	     -0.04180927	      0.17310826	      0.56620207	     -0.05560632	      0.18392753	      0.50089569	     -0.10165505	      0.18392753	      0.34845315	     -0.10165505	      0.15146973	      0.28311628	     -0.08525746	      0.14065046	      0.17421133	     -0.06476255	      0.12983120	      2.17776359	     -0.47295478	      0.96277623	      0.00000000	      0.00000000	     18.75402005	     -1.18406897	     -4.88223445	     24.94298633	    -14.26134500	     80.85659204	     55.27477657	     87.55959578	      2.51435029	     -2.30955990	     22.00823735	    -12.41177936	     67.08520541	     66.56354103	     85.82912448	     12.11011867	      9.48621008
      0.01666667	     -1.13398935	     -2.66039356	     95.37092567	      0.19972357	      0.77009571	      0.78255718	      2.10626590	     -0.05393102	    -11.01296068	      5.45346378	      0.09518090	     28.66961869	     11.26915645	      0.00000000	      2.34477050	      2.19881108	     13.26859256	      1.11628814	      0.01948290	     25.90651251	     -9.46714735	      0.00000000	      0.28065128	     -0.04601869	      0.17514826	      0.52119750	     -0.06120486	      0.18609503	      0.46108199	     -0.11188984	      0.18609503	      0.32075635	     -0.11188984	      0.15325473	      0.26061278	     -0.09384131	      0.14230796	      0.16036414	     -0.07128295	      0.13136120	      2.00466405	     -0.52057261	      0.97412209	      0.00000000	      0.00000000	     18.32754101	     -1.27723143	     -2.91616788	     25.88330420	    -13.49050761	     82.86676336	     54.30658274	     87.31001933	      3.40105356	     -2.40061467	     22.15436757	    -12.98314717	     67.20103799	     67.08522738	     86.65112333	     14.25244994	      9.34765214
      0.03333333	     -1.43222040	     -2.45342319	     94.81425707	      0.20043131	      0.77000123	      0.78171185	      1.72563138	     -0.42941620	    -11.47008724	      5.33697608	      0.09314780	     29.54663110	     12.87772682	      0.00000000	      1.95507703	      2.48291075	     12.03751873	      1.14102705	      0.01991468	     26.24700225	     -8.73956963	      0.00000000	      0.26635726	     -0.05951158	      0.15380663	      0.49465207	     -0.07915040	      0.16341954	      0.43759834	     -0.14469646	      0.16341954	      0.30441971	     -0.14469646	      0.13458080	      0.24733935	     -0.12135602	      0.12496789	      0.15219654	     -0.09218344	      0.11535497	      1.90256328	     -0.67320692	      0.85542633	      0.00000000	      0.00000000	     18.04010436	     -1.37778931	     -1.45053399	     26.74212004	    -12.82493619	     84.93160317	     53.59449448	     87.13469091	      3.34253946	     -2.91647483	     21.74520879	    -13.38908437	     66.26575620	     67.48349154	     87.21495247	     16.48179197	      9.62397496
      0.05000000	     -1.81441365	     -2.29841067	     94.33990984	      0.20125308	      0.76980835	      0.78099270	      1.39373510	     -0.83502146	    -11.24632431	      5.27773400	      0.09211384	     29.99499378	     13.39768952	      0.00000000	      1.62723788	      2.86164101	     11.53782605	      1.13240471	      0.01976419	     26.21928795	     -8.98739268	      0.00000000	      0.25278397	     -0.09812348	      0.19546864	      0.46944512	     -0.13050422	      0.20768543	      0.41529879	     -0.23857742	      0.20768543	      0.28890680	     -0.23857742	      0.17103506	      0.23473520	     -0.20009339	      0.15881827	      0.14444076	     -0.15199326	      0.14660148	      1.80561064	     -1.10999238	      1.08713792	      0.00000000	      0.00000000	     17.88984747	     -1.38673171	     -1.09089174	     26.98167346	    -12.42350777	     85.54722199	     53.30121321	     87.29238287	      3.63835609	     -2.78077664	     21.53693169	    -13.76591191	     65.92158353	     67.78400809	     87.11681452	     17.07101329	      9.39963896
      0.06666667	     -2.10913114	     -2.21330353	     94.05045023	      0.20166088	      0.76945034	      0.78041902	      1.17967392	     -1.16920472	    -11.17897267	      5.37239415	      0.09376597	     30.24899219	     13.81232407	      0.00000000	      1.42514202	      3.16525676	     11.20200831	      1.14493946	      0.01998296	     26.21948174	     -9.12145000	      0.00000000	      0.24611323	     -0.13025832	      0.22611419	      0.45705688	     -0.17324357	      0.24024633	      0.40433942	     -0.31671009	      0.24024633	      0.28128281	     -0.31671009	      0.19784992	      0.22854074	     -0.26562278	      0.18371778	      0.14062910	     -0.20177015	      0.16958565	      1.75796218	     -1.47350822	      1.25757932	      0.00000000	      0.00000000	     17.85794692	     -1.27335907	     -0.95381517	     27.14419233	    -12.29913839	     85.94811886	     53.37720756	     87.43705114	      3.77282023	     -2.79386843	     21.11376369	    -14.00040380	     65.22496032	     68.00147203	     86.87258833	     17.34951885	      9.16919128
      0.08333333	     -2.39912622	     -2.21091635	     93.66433734	      0.20255477	      0.76912219	      0.78007152	      1.16221173	     -1.50013198	    -11.34039063	      5.63784165	      0.09839890	     30.31067208	     14.56294035	      0.00000000	      1.30390838	      3.44791434	     10.68763577	      1.09047595	      0.01903240	     26.11252406	     -9.25080034	      0.00000000	      0.24651624	     -0.16750114	      0.26050483	      0.45780531	     -0.22277652	      0.27678638	      0.40500153	     -0.40726228	      0.27678638	      0.28174341	     -0.40726228	      0.22794173	      0.22891498	     -0.34156833	      0.21166017	      0.14085938	     -0.25945927	      0.19537862	      1.76084086	     -1.89480645	      1.44884971	      0.00000000	      0.00000000	     17.99481051	     -1.02440508	     -0.78911708	     27.42569555	    -11.96760765	     86.56882326	     53.25501366	     87.65401020	      3.76181798	     -2.74873517	     20.34685585	    -14.25078134	     63.91376488	     68.19369550	     86.48089696	     17.66464049	      9.12046529
      0.10000000	     -2.62111483	     -2.23189660	     93.58189733	      0.20259101	      0.76876010	      0.77982063	      1.13211657	     -1.80209994	    -12.10230738	      5.86607767	      0.10238237	     30.39406773	     15.66850526	      0.00000000	      1.26906036	      3.69283446	     10.30927069	      1.09603060	      0.01912934	     26.07168535	     -9.07091007	      0.00000000	      0.25009839	     -0.19126157	      0.24133361	      0.46445772	     -0.25437789	      0.25641696	      0.41088664	     -0.46503339	      0.25641696	      0.28583745	     -0.46503339	      0.21116691	      0.23224136	     -0.39002060	      0.19608356	      0.14290622	     -0.29626418	      0.18100021	      1.78642778	     -2.16358916	      1.34222514	      0.00000000	      0.00000000	     18.07079448	     -0.85763932	     -0.36127209	     27.78745707	    -11.83949308	     87.43078747	     53.38579813	     87.77516097	      3.26356180	     -2.94539792	     19.44150404	    -14.35129246	     62.36082487	     68.48720000	     85.89629707	     18.14277615	     10.15048204
      0.11666667	     -2.82507625	     -2.24703329	     93.49897551	      0.20278245	      0.76855934	      0.77974351	      1.11470592	     -2.04467697	    -12.29167165	      6.03672608	      0.10536075	     30.34312449	     16.01829053	      0.00000000	      1.26601633	      3.89452681	      9.01271299	      1.11668052	      0.01948975	     26.37454885	     -7.42032987	      0.00000000	      0.24824688	     -0.21855860	      0.25277272	      0.46101927	     -0.29068294	      0.26857102	      0.40784479	     -0.53140338	      0.26857102	      0.28372136	     -0.53140338	      0.22117613	      0.23052205	     -0.44568470	      0.20537784	      0.14184827	     -0.33854727	      0.18957954	      1.77320262	     -2.47237861	      1.40584606	      0.00000000	      0.00000000	     18.19929727	     -0.74826139	     -0.47884099	     27.80367931	    -11.77187915	     87.46341719	     53.44819491	     87.85414148	      3.21783171	     -2.99895973	     18.76778225	    -14.42895945	     61.32839494	     68.60606452	     84.82050602	     18.35017338	     10.86327783
